{
    "asset" : {
        "generator" : "Khronos glTF Blender I/O v1.1.46",
        "version" : "2.0"
    },
    "scene" : 0,
    "scenes" : [
        {
            "name" : "Armoire",
            "nodes" : [
                0
            ]
        },
        {
            "name" : "Desk"
        },
        {
            "name" : "Desk.001"
        },
        {
            "name" : "Flyer.001"
        },
        {
            "name" : "Flyer.002"
        },
        {
            "name" : "MAIN"
        },
        {
            "name" : "MAIN.001"
        },
        {
            "name" : "Scene"
        },
        {
            "name" : "spot"
        }
    ],
    "nodes" : [
        {
            "mesh" : 0,
            "name" : "Soundsystem",
            "rotation" : [
                0,
                1,
                0,
                -1.6292068494294654e-07
            ],
            "scale" : [
                4.149092674255371,
                0.1350298523902893,
                -1.4619218111038208
            ],
            "translation" : [
                0.04878711700439453,
                1.7603944540023804,
                -3.6488075256347656
            ]
        }
    ],
    "materials" : [
        {
            "doubleSided" : true,
            "emissiveFactor" : [
                0,
                0,
                0
            ],
            "name" : "DESK",
            "pbrMetallicRoughness" : {
                "baseColorFactor" : [
                    0.13843169808387756,
                    0.057805415242910385,
                    0.035601332783699036,
                    1
                ],
                "metallicFactor" : 0,
                "roughnessFactor" : 0.5
            }
        },
        {
            "doubleSided" : true,
            "emissiveFactor" : [
                0,
                0,
                0
            ],
            "name" : "GREEN",
            "pbrMetallicRoughness" : {
                "baseColorFactor" : [
                    0.01370205357670784,
                    0.13286837935447693,
                    0.08437623083591461,
                    1
                ],
                "metallicFactor" : 0,
                "roughnessFactor" : 0.5
            }
        },
        {
            "doubleSided" : true,
            "emissiveFactor" : [
                0,
                0,
                0
            ],
            "name" : "speakers",
            "pbrMetallicRoughness" : {
                "baseColorFactor" : [
                    0.23950307071208954,
                    0.09928564727306366,
                    0.051677148789167404,
                    1
                ],
                "metallicFactor" : 0,
                "roughnessFactor" : 0.5
            }
        },
        {
            "doubleSided" : true,
            "emissiveFactor" : [
                0,
                0,
                0
            ],
            "name" : "wave",
            "pbrMetallicRoughness" : {
                "baseColorTexture" : {
                    "index" : 0,
                    "texCoord" : 0
                },
                "metallicFactor" : 0,
                "roughnessFactor" : 0.5
            }
        },
        {
            "doubleSided" : true,
            "emissiveFactor" : [
                0,
                0,
                0
            ],
            "name" : "black",
            "pbrMetallicRoughness" : {
                "baseColorFactor" : [
                    0,
                    0,
                    0,
                    1
                ],
                "metallicFactor" : 0,
                "roughnessFactor" : 0.5
            }
        },
        {
            "doubleSided" : true,
            "emissiveFactor" : [
                0,
                0,
                0
            ],
            "name" : "RED",
            "pbrMetallicRoughness" : {
                "baseColorFactor" : [
                    0.341914564371109,
                    0,
                    0,
                    1
                ],
                "metallicFactor" : 0,
                "roughnessFactor" : 0.5
            }
        },
        {
            "doubleSided" : true,
            "emissiveFactor" : [
                0,
                0,
                0
            ],
            "name" : "YELLOW",
            "pbrMetallicRoughness" : {
                "baseColorFactor" : [
                    0.8879233598709106,
                    0.4452010691165924,
                    0.03310481458902359,
                    1
                ],
                "metallicFactor" : 0,
                "roughnessFactor" : 0.5
            }
        },
        {
            "doubleSided" : true,
            "emissiveFactor" : [
                0,
                0,
                0
            ],
            "name" : "WHITE",
            "pbrMetallicRoughness" : {
                "baseColorFactor" : [
                    1,
                    1,
                    1,
                    1
                ],
                "metallicFactor" : 0,
                "roughnessFactor" : 0.5
            }
        },
        {
            "doubleSided" : true,
            "name" : "NOIR",
            "pbrMetallicRoughness" : {}
        }
    ],
    "meshes" : [
        {
            "name" : "Cube.014",
            "primitives" : [
                {
                    "attributes" : {
                        "POSITION" : 0,
                        "NORMAL" : 1,
                        "TEXCOORD_0" : 2
                    },
                    "indices" : 3,
                    "material" : 0
                },
                {
                    "attributes" : {
                        "POSITION" : 4,
                        "NORMAL" : 5,
                        "TEXCOORD_0" : 6
                    },
                    "indices" : 7,
                    "material" : 1
                },
                {
                    "attributes" : {
                        "POSITION" : 8,
                        "NORMAL" : 9,
                        "TEXCOORD_0" : 10
                    },
                    "indices" : 11,
                    "material" : 2
                },
                {
                    "attributes" : {
                        "POSITION" : 12,
                        "NORMAL" : 13,
                        "TEXCOORD_0" : 14
                    },
                    "indices" : 15,
                    "material" : 3
                },
                {
                    "attributes" : {
                        "POSITION" : 16,
                        "NORMAL" : 17,
                        "TEXCOORD_0" : 18
                    },
                    "indices" : 19,
                    "material" : 4
                },
                {
                    "attributes" : {
                        "POSITION" : 20,
                        "NORMAL" : 21,
                        "TEXCOORD_0" : 22
                    },
                    "indices" : 23,
                    "material" : 5
                },
                {
                    "attributes" : {
                        "POSITION" : 24,
                        "NORMAL" : 25,
                        "TEXCOORD_0" : 26
                    },
                    "indices" : 27,
                    "material" : 6
                },
                {
                    "attributes" : {
                        "POSITION" : 28,
                        "NORMAL" : 29,
                        "TEXCOORD_0" : 30
                    },
                    "indices" : 31,
                    "material" : 7
                },
                {
                    "attributes" : {
                        "POSITION" : 32,
                        "NORMAL" : 33,
                        "TEXCOORD_0" : 34
                    },
                    "indices" : 35,
                    "material" : 8
                }
            ]
        }
    ],
    "textures" : [
        {
            "source" : 0
        }
    ],
    "images" : [
        {
            "bufferView" : 16,
            "mimeType" : "image/png",
            "name" : "waveform_rendering_mask-2d44b706dd9171ec4bdb6720fa2c0fb1"
        }
    ],
    "accessors" : [
        {
            "bufferView" : 0,
            "componentType" : 5126,
            "count" : 1031,
            "max" : [
                1.0467945337295532,
                15.3933744430542,
                1.0805062055587769
            ],
            "min" : [
                -1.0467945337295532,
                -13.039412498474121,
                -0.9946593046188354
            ],
            "type" : "VEC3"
        },
        {
            "bufferView" : 1,
            "componentType" : 5126,
            "count" : 1031,
            "type" : "VEC3"
        },
        {
            "bufferView" : 2,
            "componentType" : 5126,
            "count" : 1031,
            "type" : "VEC2"
        },
        {
            "bufferView" : 3,
            "componentType" : 5123,
            "count" : 2652,
            "type" : "SCALAR"
        },
        {
            "bufferView" : 4,
            "componentType" : 5126,
            "count" : 15887,
            "max" : [
                0.7677490711212158,
                41.01513671875,
                1.1807574033737183
            ],
            "min" : [
                -0.7581225633621216,
                -9.703499794006348,
                0.12984418869018555
            ],
            "type" : "VEC3"
        },
        {
            "bufferView" : 5,
            "componentType" : 5126,
            "count" : 15887,
            "type" : "VEC3"
        },
        {
            "bufferView" : 6,
            "componentType" : 5126,
            "count" : 15887,
            "type" : "VEC2"
        },
        {
            "bufferView" : 7,
            "componentType" : 5123,
            "count" : 23061,
            "type" : "SCALAR"
        },
        {
            "bufferView" : 8,
            "componentType" : 5126,
            "count" : 1040,
            "max" : [
                0.9744016528129578,
                44.18678283691406,
                0.7285261154174805
            ],
            "min" : [
                -0.9647752046585083,
                15.252144813537598,
                -0.8046269416809082
            ],
            "type" : "VEC3"
        },
        {
            "bufferView" : 9,
            "componentType" : 5126,
            "count" : 1040,
            "type" : "VEC3"
        },
        {
            "bufferView" : 10,
            "componentType" : 5126,
            "count" : 1040,
            "type" : "VEC2"
        },
        {
            "bufferView" : 11,
            "componentType" : 5123,
            "count" : 2100,
            "type" : "SCALAR"
        },
        {
            "bufferView" : 12,
            "componentType" : 5126,
            "count" : 4,
            "max" : [
                0.1979440301656723,
                28.96507453918457,
                0.6701748967170715
            ],
            "min" : [
                -0.25825637578964233,
                24.843048095703125,
                0.6701744794845581
            ],
            "type" : "VEC3"
        },
        {
            "bufferView" : 13,
            "componentType" : 5126,
            "count" : 4,
            "type" : "VEC3"
        },
        {
            "bufferView" : 14,
            "componentType" : 5126,
            "count" : 4,
            "type" : "VEC2"
        },
        {
            "bufferView" : 15,
            "componentType" : 5123,
            "count" : 6,
            "type" : "SCALAR"
        },
        {
            "bufferView" : 17,
            "componentType" : 5126,
            "count" : 24,
            "max" : [
                -0.02848397009074688,
                24.335054397583008,
                0.7375808954238892
            ],
            "min" : [
                -0.06753817945718765,
                23.135026931762695,
                0.7177336812019348
            ],
            "type" : "VEC3"
        },
        {
            "bufferView" : 18,
            "componentType" : 5126,
            "count" : 24,
            "type" : "VEC3"
        },
        {
            "bufferView" : 19,
            "componentType" : 5126,
            "count" : 24,
            "type" : "VEC2"
        },
        {
            "bufferView" : 20,
            "componentType" : 5123,
            "count" : 36,
            "type" : "SCALAR"
        },
        {
            "bufferView" : 21,
            "componentType" : 5126,
            "count" : 4160,
            "max" : [
                0.8013762831687927,
                24.34370994567871,
                0.7370322346687317
            ],
            "min" : [
                -0.7917498350143433,
                19.697532653808594,
                -0.27683067321777344
            ],
            "type" : "VEC3"
        },
        {
            "bufferView" : 22,
            "componentType" : 5126,
            "count" : 4160,
            "type" : "VEC3"
        },
        {
            "bufferView" : 23,
            "componentType" : 5126,
            "count" : 4160,
            "type" : "VEC2"
        },
        {
            "bufferView" : 24,
            "componentType" : 5123,
            "count" : 6132,
            "type" : "SCALAR"
        },
        {
            "bufferView" : 25,
            "componentType" : 5126,
            "count" : 4364,
            "max" : [
                0.7866452932357788,
                33.707176208496094,
                0.761114776134491
            ],
            "min" : [
                -0.7770188450813293,
                17.081939697265625,
                -0.15370838344097137
            ],
            "type" : "VEC3"
        },
        {
            "bufferView" : 26,
            "componentType" : 5126,
            "count" : 4364,
            "type" : "VEC3"
        },
        {
            "bufferView" : 27,
            "componentType" : 5126,
            "count" : 4364,
            "type" : "VEC2"
        },
        {
            "bufferView" : 28,
            "componentType" : 5123,
            "count" : 6528,
            "type" : "SCALAR"
        },
        {
            "bufferView" : 29,
            "componentType" : 5126,
            "count" : 5696,
            "max" : [
                0.9103429317474365,
                41.720848083496094,
                0.31908226013183594
            ],
            "min" : [
                -0.9007164239883423,
                16.349287033081055,
                -0.11822957545518875
            ],
            "type" : "VEC3"
        },
        {
            "bufferView" : 30,
            "componentType" : 5126,
            "count" : 5696,
            "type" : "VEC3"
        },
        {
            "bufferView" : 31,
            "componentType" : 5126,
            "count" : 5696,
            "type" : "VEC2"
        },
        {
            "bufferView" : 32,
            "componentType" : 5123,
            "count" : 8544,
            "type" : "SCALAR"
        },
        {
            "bufferView" : 33,
            "componentType" : 5126,
            "count" : 1412,
            "max" : [
                0.9198801517486572,
                41.79591369628906,
                0.3274749517440796
            ],
            "min" : [
                -0.9102537631988525,
                16.09345245361328,
                0.2545871436595917
            ],
            "type" : "VEC3"
        },
        {
            "bufferView" : 34,
            "componentType" : 5126,
            "count" : 1412,
            "type" : "VEC3"
        },
        {
            "bufferView" : 35,
            "componentType" : 5126,
            "count" : 1412,
            "type" : "VEC2"
        },
        {
            "bufferView" : 36,
            "componentType" : 5123,
            "count" : 2304,
            "type" : "SCALAR"
        }
    ],
    "bufferViews" : [
        {
            "buffer" : 0,
            "byteLength" : 12372,
            "byteOffset" : 0
        },
        {
            "buffer" : 0,
            "byteLength" : 12372,
            "byteOffset" : 12372
        },
        {
            "buffer" : 0,
            "byteLength" : 8248,
            "byteOffset" : 24744
        },
        {
            "buffer" : 0,
            "byteLength" : 5304,
            "byteOffset" : 32992
        },
        {
            "buffer" : 0,
            "byteLength" : 190644,
            "byteOffset" : 38296
        },
        {
            "buffer" : 0,
            "byteLength" : 190644,
            "byteOffset" : 228940
        },
        {
            "buffer" : 0,
            "byteLength" : 127096,
            "byteOffset" : 419584
        },
        {
            "buffer" : 0,
            "byteLength" : 46122,
            "byteOffset" : 546680
        },
        {
            "buffer" : 0,
            "byteLength" : 12480,
            "byteOffset" : 592804
        },
        {
            "buffer" : 0,
            "byteLength" : 12480,
            "byteOffset" : 605284
        },
        {
            "buffer" : 0,
            "byteLength" : 8320,
            "byteOffset" : 617764
        },
        {
            "buffer" : 0,
            "byteLength" : 4200,
            "byteOffset" : 626084
        },
        {
            "buffer" : 0,
            "byteLength" : 48,
            "byteOffset" : 630284
        },
        {
            "buffer" : 0,
            "byteLength" : 48,
            "byteOffset" : 630332
        },
        {
            "buffer" : 0,
            "byteLength" : 32,
            "byteOffset" : 630380
        },
        {
            "buffer" : 0,
            "byteLength" : 12,
            "byteOffset" : 630412
        },
        {
            "buffer" : 0,
            "byteLength" : 10579,
            "byteOffset" : 630424
        },
        {
            "buffer" : 0,
            "byteLength" : 288,
            "byteOffset" : 641004
        },
        {
            "buffer" : 0,
            "byteLength" : 288,
            "byteOffset" : 641292
        },
        {
            "buffer" : 0,
            "byteLength" : 192,
            "byteOffset" : 641580
        },
        {
            "buffer" : 0,
            "byteLength" : 72,
            "byteOffset" : 641772
        },
        {
            "buffer" : 0,
            "byteLength" : 49920,
            "byteOffset" : 641844
        },
        {
            "buffer" : 0,
            "byteLength" : 49920,
            "byteOffset" : 691764
        },
        {
            "buffer" : 0,
            "byteLength" : 33280,
            "byteOffset" : 741684
        },
        {
            "buffer" : 0,
            "byteLength" : 12264,
            "byteOffset" : 774964
        },
        {
            "buffer" : 0,
            "byteLength" : 52368,
            "byteOffset" : 787228
        },
        {
            "buffer" : 0,
            "byteLength" : 52368,
            "byteOffset" : 839596
        },
        {
            "buffer" : 0,
            "byteLength" : 34912,
            "byteOffset" : 891964
        },
        {
            "buffer" : 0,
            "byteLength" : 13056,
            "byteOffset" : 926876
        },
        {
            "buffer" : 0,
            "byteLength" : 68352,
            "byteOffset" : 939932
        },
        {
            "buffer" : 0,
            "byteLength" : 68352,
            "byteOffset" : 1008284
        },
        {
            "buffer" : 0,
            "byteLength" : 45568,
            "byteOffset" : 1076636
        },
        {
            "buffer" : 0,
            "byteLength" : 17088,
            "byteOffset" : 1122204
        },
        {
            "buffer" : 0,
            "byteLength" : 16944,
            "byteOffset" : 1139292
        },
        {
            "buffer" : 0,
            "byteLength" : 16944,
            "byteOffset" : 1156236
        },
        {
            "buffer" : 0,
            "byteLength" : 11296,
            "byteOffset" : 1173180
        },
        {
            "buffer" : 0,
            "byteLength" : 4608,
            "byteOffset" : 1184476
        }
    ],
    "buffers" : [
        {
            "byteLength" : 1189084,
            "uri" : "data:application/octet-stream;base64,"
        }
    ]
}
