{
    "asset" : {
        "generator" : "Khronos glTF Blender I/O v1.1.46",
        "version" : "2.0"
    },
    "scene" : 3,
    "scenes" : [
        {
            "name" : "Anims_01"
        },
        {
            "name" : "Body"
        },
        {
            "name" : "Hands"
        },
        {
            "name" : "Hats /Logo",
            "nodes" : [
                2
            ]
        },
        {
            "name" : "Hautbois"
        },
        {
            "name" : "Head"
        },
        {
            "name" : "Index_scene"
        },
        {
            "name" : "MASCOT"
        },
        {
            "name" : "MASCOT.05102020"
        },
        {
            "name" : "MASCOT.05122020"
        },
        {
            "name" : "MASCOT.05122021"
        },
        {
            "name" : "MASCOT.Export4"
        },
        {
            "name" : "Mouth"
        },
        {
            "name" : "Shoe"
        }
    ],
    "nodes" : [
        {
            "mesh" : 0,
            "name" : "Hat",
            "rotation" : [
                -0.3187156617641449,
                -0.629625141620636,
                0.07581492513418198,
                0.7044463753700256
            ],
            "scale" : [
                0.3500366508960724,
                0.7635412812232971,
                0.28570565581321716
            ],
            "translation" : [
                0.12187975645065308,
                0.9778112694621086,
                0.36269277334213257
            ]
        },
        {
            "children" : [
                0
            ],
            "name" : "Bone",
            "rotation" : [
                0.028578229248523712,
                0.010564655065536499,
                0.013987071812152863,
                0.9994378685951233
            ],
            "scale" : [
                0.9999999403953552,
                1,
                1
            ]
        },
        {
            "children" : [
                1
            ],
            "name" : "Armature"
        }
    ],
    "animations" : [
        {
            "channels" : [
                {
                    "sampler" : 0,
                    "target" : {
                        "node" : 1,
                        "path" : "translation"
                    }
                },
                {
                    "sampler" : 1,
                    "target" : {
                        "node" : 1,
                        "path" : "rotation"
                    }
                },
                {
                    "sampler" : 2,
                    "target" : {
                        "node" : 1,
                        "path" : "scale"
                    }
                }
            ],
            "name" : "hatTurn",
            "samplers" : [
                {
                    "input" : 18,
                    "interpolation" : "LINEAR",
                    "output" : 19
                },
                {
                    "input" : 18,
                    "interpolation" : "LINEAR",
                    "output" : 20
                },
                {
                    "input" : 18,
                    "interpolation" : "LINEAR",
                    "output" : 21
                }
            ]
        }
    ],
    "materials" : [
        {
            "doubleSided" : true,
            "emissiveFactor" : [
                0,
                0,
                0
            ],
            "name" : "GREEN.002",
            "pbrMetallicRoughness" : {
                "baseColorFactor" : [
                    0.01370205357670784,
                    0.13286837935447693,
                    0.08437623083591461,
                    1
                ],
                "metallicFactor" : 0,
                "roughnessFactor" : 0.5
            }
        },
        {
            "doubleSided" : true,
            "emissiveFactor" : [
                0,
                0,
                0
            ],
            "name" : "RED.005",
            "pbrMetallicRoughness" : {
                "baseColorFactor" : [
                    0.341914564371109,
                    0,
                    0,
                    1
                ],
                "metallicFactor" : 0,
                "roughnessFactor" : 0.5
            }
        },
        {
            "doubleSided" : true,
            "emissiveFactor" : [
                0,
                0,
                0
            ],
            "name" : "YELLOW.005",
            "pbrMetallicRoughness" : {
                "baseColorFactor" : [
                    0.8879233598709106,
                    0.4452010691165924,
                    0.03310481458902359,
                    1
                ],
                "metallicFactor" : 0,
                "roughnessFactor" : 0.5
            }
        }
    ],
    "meshes" : [
        {
            "name" : "Cone.003",
            "primitives" : [
                {
                    "attributes" : {
                        "POSITION" : 0,
                        "NORMAL" : 1,
                        "TEXCOORD_0" : 2,
                        "JOINTS_0" : 3,
                        "WEIGHTS_0" : 4
                    },
                    "indices" : 5,
                    "material" : 0
                },
                {
                    "attributes" : {
                        "POSITION" : 6,
                        "NORMAL" : 7,
                        "TEXCOORD_0" : 8,
                        "JOINTS_0" : 9,
                        "WEIGHTS_0" : 10
                    },
                    "indices" : 11,
                    "material" : 1
                },
                {
                    "attributes" : {
                        "POSITION" : 12,
                        "NORMAL" : 13,
                        "TEXCOORD_0" : 14,
                        "JOINTS_0" : 15,
                        "WEIGHTS_0" : 16
                    },
                    "indices" : 17,
                    "material" : 2
                }
            ]
        }
    ],
    "accessors" : [
        {
            "bufferView" : 0,
            "componentType" : 5126,
            "count" : 11238,
            "max" : [
                2.7912886142730713,
                1.075926423072815,
                4.210141181945801
            ],
            "min" : [
                -3.406874418258667,
                -1.2780547142028809,
                -4.552576065063477
            ],
            "type" : "VEC3"
        },
        {
            "bufferView" : 1,
            "componentType" : 5126,
            "count" : 11238,
            "type" : "VEC3"
        },
        {
            "bufferView" : 2,
            "componentType" : 5126,
            "count" : 11238,
            "type" : "VEC2"
        },
        {
            "bufferView" : 3,
            "componentType" : 5123,
            "count" : 11238,
            "type" : "VEC4"
        },
        {
            "bufferView" : 4,
            "componentType" : 5126,
            "count" : 11238,
            "type" : "VEC4"
        },
        {
            "bufferView" : 5,
            "componentType" : 5123,
            "count" : 11886,
            "type" : "SCALAR"
        },
        {
            "bufferView" : 6,
            "componentType" : 5126,
            "count" : 11228,
            "max" : [
                2.8009698390960693,
                1.0874336957931519,
                4.210141181945801
            ],
            "min" : [
                -3.406874418258667,
                -1.378832221031189,
                -4.552576065063477
            ],
            "type" : "VEC3"
        },
        {
            "bufferView" : 7,
            "componentType" : 5126,
            "count" : 11228,
            "type" : "VEC3"
        },
        {
            "bufferView" : 8,
            "componentType" : 5126,
            "count" : 11228,
            "type" : "VEC2"
        },
        {
            "bufferView" : 9,
            "componentType" : 5123,
            "count" : 11228,
            "type" : "VEC4"
        },
        {
            "bufferView" : 10,
            "componentType" : 5126,
            "count" : 11228,
            "type" : "VEC4"
        },
        {
            "bufferView" : 11,
            "componentType" : 5123,
            "count" : 11976,
            "type" : "SCALAR"
        },
        {
            "bufferView" : 12,
            "componentType" : 5126,
            "count" : 2068,
            "max" : [
                3.136779546737671,
                1.0030227899551392,
                4.739497661590576
            ],
            "min" : [
                -3.928880214691162,
                -1.4795256853103638,
                -5.144278526306152
            ],
            "type" : "VEC3"
        },
        {
            "bufferView" : 13,
            "componentType" : 5126,
            "count" : 2068,
            "type" : "VEC3"
        },
        {
            "bufferView" : 14,
            "componentType" : 5126,
            "count" : 2068,
            "type" : "VEC2"
        },
        {
            "bufferView" : 15,
            "componentType" : 5123,
            "count" : 2068,
            "type" : "VEC4"
        },
        {
            "bufferView" : 16,
            "componentType" : 5126,
            "count" : 2068,
            "type" : "VEC4"
        },
        {
            "bufferView" : 17,
            "componentType" : 5123,
            "count" : 2292,
            "type" : "SCALAR"
        },
        {
            "bufferView" : 18,
            "componentType" : 5126,
            "count" : 273,
            "max" : [
                11.333333333333334
            ],
            "min" : [
                0
            ],
            "type" : "SCALAR"
        },
        {
            "bufferView" : 19,
            "componentType" : 5126,
            "count" : 273,
            "type" : "VEC3"
        },
        {
            "bufferView" : 20,
            "componentType" : 5126,
            "count" : 273,
            "type" : "VEC4"
        },
        {
            "bufferView" : 21,
            "componentType" : 5126,
            "count" : 273,
            "type" : "VEC3"
        }
    ],
    "bufferViews" : [
        {
            "buffer" : 0,
            "byteLength" : 134856,
            "byteOffset" : 0
        },
        {
            "buffer" : 0,
            "byteLength" : 134856,
            "byteOffset" : 134856
        },
        {
            "buffer" : 0,
            "byteLength" : 89904,
            "byteOffset" : 269712
        },
        {
            "buffer" : 0,
            "byteLength" : 89904,
            "byteOffset" : 359616
        },
        {
            "buffer" : 0,
            "byteLength" : 179808,
            "byteOffset" : 449520
        },
        {
            "buffer" : 0,
            "byteLength" : 23772,
            "byteOffset" : 629328
        },
        {
            "buffer" : 0,
            "byteLength" : 134736,
            "byteOffset" : 653100
        },
        {
            "buffer" : 0,
            "byteLength" : 134736,
            "byteOffset" : 787836
        },
        {
            "buffer" : 0,
            "byteLength" : 89824,
            "byteOffset" : 922572
        },
        {
            "buffer" : 0,
            "byteLength" : 89824,
            "byteOffset" : 1012396
        },
        {
            "buffer" : 0,
            "byteLength" : 179648,
            "byteOffset" : 1102220
        },
        {
            "buffer" : 0,
            "byteLength" : 23952,
            "byteOffset" : 1281868
        },
        {
            "buffer" : 0,
            "byteLength" : 24816,
            "byteOffset" : 1305820
        },
        {
            "buffer" : 0,
            "byteLength" : 24816,
            "byteOffset" : 1330636
        },
        {
            "buffer" : 0,
            "byteLength" : 16544,
            "byteOffset" : 1355452
        },
        {
            "buffer" : 0,
            "byteLength" : 16544,
            "byteOffset" : 1371996
        },
        {
            "buffer" : 0,
            "byteLength" : 33088,
            "byteOffset" : 1388540
        },
        {
            "buffer" : 0,
            "byteLength" : 4584,
            "byteOffset" : 1421628
        },
        {
            "buffer" : 0,
            "byteLength" : 1092,
            "byteOffset" : 1426212
        },
        {
            "buffer" : 0,
            "byteLength" : 3276,
            "byteOffset" : 1427304
        },
        {
            "buffer" : 0,
            "byteLength" : 4368,
            "byteOffset" : 1430580
        },
        {
            "buffer" : 0,
            "byteLength" : 3276,
            "byteOffset" : 1434948
        }
    ],
    "buffers" : [
        {
            "byteLength" : 1438224,
            "uri" : "data:application/octet-stream;base64,"
        }
    ]
}
