{
    "asset" : {
        "generator" : "Khronos glTF Blender I/O v1.1.46",
        "version" : "2.0"
    },
    "scene" : 8,
    "scenes" : [
        {
            "name" : "Armoire"
        },
        {
            "name" : "Desk"
        },
        {
            "name" : "Desk.001"
        },
        {
            "name" : "Flyer.001"
        },
        {
            "name" : "Flyer.002"
        },
        {
            "name" : "MAIN"
        },
        {
            "name" : "MAIN.001"
        },
        {
            "name" : "Scene"
        },
        {
            "name" : "spot",
            "nodes" : [
                0
            ]
        }
    ],
    "nodes" : [
        {
            "mesh" : 0,
            "name" : "Lux_Cone2.003",
            "rotation" : [
                0,
                0,
                0.5,
                0.8660253882408142
            ],
            "scale" : [
                0.4472428858280182,
                0.5886801481246948,
                0.4472428858280182
            ],
            "translation" : [
                3.814697265625e-06,
                0.45158982276916504,
                0
            ]
        }
    ],
    "materials" : [
        {
            "doubleSided" : true,
            "emissiveFactor" : [
                0,
                0,
                0
            ],
            "name" : "GREEN",
            "pbrMetallicRoughness" : {
                "baseColorFactor" : [
                    0.01370205357670784,
                    0.13286837935447693,
                    0.08437623083591461,
                    1
                ],
                "metallicFactor" : 0,
                "roughnessFactor" : 0.5
            }
        }
    ],
    "meshes" : [
        {
            "name" : "Cone.001",
            "primitives" : [
                {
                    "attributes" : {
                        "POSITION" : 0,
                        "NORMAL" : 1,
                        "TEXCOORD_0" : 2
                    },
                    "indices" : 3,
                    "material" : 0
                }
            ]
        }
    ],
    "accessors" : [
        {
            "bufferView" : 0,
            "componentType" : 5126,
            "count" : 288,
            "max" : [
                1.4220762252807617,
                1.0734291076660156,
                1.0060195922851562
            ],
            "min" : [
                -1.751286506652832,
                -1.1949119567871094,
                -0.9939804077148438
            ],
            "type" : "VEC3"
        },
        {
            "bufferView" : 1,
            "componentType" : 5126,
            "count" : 288,
            "type" : "VEC3"
        },
        {
            "bufferView" : 2,
            "componentType" : 5126,
            "count" : 288,
            "type" : "VEC2"
        },
        {
            "bufferView" : 3,
            "componentType" : 5123,
            "count" : 468,
            "type" : "SCALAR"
        }
    ],
    "bufferViews" : [
        {
            "buffer" : 0,
            "byteLength" : 3456,
            "byteOffset" : 0
        },
        {
            "buffer" : 0,
            "byteLength" : 3456,
            "byteOffset" : 3456
        },
        {
            "buffer" : 0,
            "byteLength" : 2304,
            "byteOffset" : 6912
        },
        {
            "buffer" : 0,
            "byteLength" : 936,
            "byteOffset" : 9216
        }
    ],
    "buffers" : [
        {
            "byteLength" : 10152,
            "uri" : "data:application/octet-stream;base64,"
        }
    ]
}
