{
    "asset" : {
        "generator" : "Khronos glTF Blender I/O v1.1.46",
        "version" : "2.0"
    },
    "scene" : 1,
    "scenes" : [
        {
            "name" : "Armoire"
        },
        {
            "name" : "Desk",
            "nodes" : [
                0
            ]
        },
        {
            "name" : "Flyer.001"
        },
        {
            "name" : "Flyer.002"
        },
        {
            "name" : "MAIN"
        },
        {
            "name" : "MAIN.001"
        },
        {
            "name" : "Scene"
        },
        {
            "name" : "spot"
        }
    ],
    "nodes" : [
        {
            "mesh" : 0,
            "name" : "Desk",
            "rotation" : [
                0.0022047304082661867,
                0,
                -0.9999975562095642,
                -1.1476691819112261e-09
            ],
            "scale" : [
                2.7400405406951904,
                1.4321857690811157,
                0.047046661376953125
            ],
            "translation" : [
                2.536118984222412,
                6.351157188415527,
                0.5357409715652466
            ]
        }
    ],
    "materials" : [
        {
            "doubleSided" : true,
            "emissiveFactor" : [
                0,
                0,
                0
            ],
            "name" : "black",
            "pbrMetallicRoughness" : {
                "baseColorFactor" : [
                    0,
                    0,
                    0,
                    1
                ],
                "metallicFactor" : 0,
                "roughnessFactor" : 0.5
            }
        },
        {
            "doubleSided" : true,
            "emissiveFactor" : [
                0,
                0,
                0
            ],
            "name" : "DESK",
            "pbrMetallicRoughness" : {
                "baseColorFactor" : [
                    0.13843169808387756,
                    0.057805415242910385,
                    0.035601332783699036,
                    1
                ],
                "metallicFactor" : 0,
                "roughnessFactor" : 0.5
            }
        },
        {
            "doubleSided" : true,
            "emissiveFactor" : [
                0,
                0,
                0
            ],
            "name" : "YELLOW",
            "pbrMetallicRoughness" : {
                "baseColorFactor" : [
                    0.8879233598709106,
                    0.4452010691165924,
                    0.03310481458902359,
                    1
                ],
                "metallicFactor" : 0,
                "roughnessFactor" : 0.5
            }
        },
        {
            "doubleSided" : true,
            "emissiveFactor" : [
                0,
                0,
                0
            ],
            "name" : "GREY.001",
            "pbrMetallicRoughness" : {
                "baseColorFactor" : [
                    0.2195262312889099,
                    0.21952617168426514,
                    0.21952618658542633,
                    1
                ],
                "metallicFactor" : 0,
                "roughnessFactor" : 0.5
            }
        },
        {
            "doubleSided" : true,
            "emissiveFactor" : [
                0,
                0,
                0
            ],
            "name" : "Computer",
            "pbrMetallicRoughness" : {
                "baseColorFactor" : [
                    0.4868345558643341,
                    0.4868345558643341,
                    0.4868345558643341,
                    1
                ],
                "metallicFactor" : 0,
                "roughnessFactor" : 0.5
            }
        },
        {
            "doubleSided" : true,
            "emissiveFactor" : [
                0,
                0,
                0
            ],
            "name" : "WHITE",
            "pbrMetallicRoughness" : {
                "baseColorFactor" : [
                    1,
                    1,
                    1,
                    1
                ],
                "metallicFactor" : 0,
                "roughnessFactor" : 0.5
            }
        },
        {
            "doubleSided" : true,
            "emissiveFactor" : [
                0,
                0,
                0
            ],
            "name" : "note1",
            "pbrMetallicRoughness" : {
                "baseColorTexture" : {
                    "index" : 0,
                    "texCoord" : 0
                },
                "metallicFactor" : 0,
                "roughnessFactor" : 0.5
            }
        },
        {
            "doubleSided" : true,
            "emissiveFactor" : [
                0,
                0,
                0
            ],
            "name" : "deskred",
            "pbrMetallicRoughness" : {
                "baseColorFactor" : [
                    0.3467041850090027,
                    0.04231137037277222,
                    0.025186873972415924,
                    1
                ],
                "metallicFactor" : 0,
                "roughnessFactor" : 0.5
            }
        },
        {
            "doubleSided" : true,
            "emissiveFactor" : [
                0,
                0,
                0
            ],
            "name" : "deskgreen",
            "pbrMetallicRoughness" : {
                "baseColorFactor" : [
                    0.14412860572338104,
                    0.2541521191596985,
                    0.07036013156175613,
                    1
                ],
                "metallicFactor" : 0,
                "roughnessFactor" : 0.30000001192092896
            }
        }
    ],
    "meshes" : [
        {
            "name" : "Cube.011",
            "primitives" : [
                {
                    "attributes" : {
                        "POSITION" : 0,
                        "NORMAL" : 1,
                        "TEXCOORD_0" : 2
                    },
                    "indices" : 3,
                    "material" : 0
                },
                {
                    "attributes" : {
                        "POSITION" : 4,
                        "NORMAL" : 5,
                        "TEXCOORD_0" : 6
                    },
                    "indices" : 7,
                    "material" : 1
                },
                {
                    "attributes" : {
                        "POSITION" : 8,
                        "NORMAL" : 9,
                        "TEXCOORD_0" : 10
                    },
                    "indices" : 11,
                    "material" : 2
                },
                {
                    "attributes" : {
                        "POSITION" : 12,
                        "NORMAL" : 13,
                        "TEXCOORD_0" : 14
                    },
                    "indices" : 15,
                    "material" : 3
                },
                {
                    "attributes" : {
                        "POSITION" : 16,
                        "NORMAL" : 17,
                        "TEXCOORD_0" : 18
                    },
                    "indices" : 19,
                    "material" : 4
                },
                {
                    "attributes" : {
                        "POSITION" : 20,
                        "NORMAL" : 21,
                        "TEXCOORD_0" : 22
                    },
                    "indices" : 23,
                    "material" : 5
                },
                {
                    "attributes" : {
                        "POSITION" : 24,
                        "NORMAL" : 25,
                        "TEXCOORD_0" : 26
                    },
                    "indices" : 27,
                    "material" : 6
                },
                {
                    "attributes" : {
                        "POSITION" : 28,
                        "NORMAL" : 29,
                        "TEXCOORD_0" : 30
                    },
                    "indices" : 31,
                    "material" : 7
                },
                {
                    "attributes" : {
                        "POSITION" : 32,
                        "NORMAL" : 33,
                        "TEXCOORD_0" : 34
                    },
                    "indices" : 35,
                    "material" : 8
                }
            ]
        }
    ],
    "textures" : [
        {
            "source" : 0
        }
    ],
    "images" : [
        {
            "bufferView" : 28,
            "mimeType" : "image/jpeg",
            "name" : "music-notes"
        }
    ],
    "accessors" : [
        {
            "bufferView" : 0,
            "componentType" : 5126,
            "count" : 19038,
            "max" : [
                1.02602219581604,
                4.395307540893555,
                150.7544708251953
            ],
            "min" : [
                -1.3818089962005615,
                -1.0245498418807983,
                1
            ],
            "type" : "VEC3"
        },
        {
            "bufferView" : 1,
            "componentType" : 5126,
            "count" : 19038,
            "type" : "VEC3"
        },
        {
            "bufferView" : 2,
            "componentType" : 5126,
            "count" : 19038,
            "type" : "VEC2"
        },
        {
            "bufferView" : 3,
            "componentType" : 5123,
            "count" : 28104,
            "type" : "SCALAR"
        },
        {
            "bufferView" : 4,
            "componentType" : 5126,
            "count" : 494,
            "max" : [
                2.484467029571533,
                4.450621604919434,
                57.912132263183594
            ],
            "min" : [
                -1.0639402866363525,
                1.3245928287506104,
                -41.286415100097656
            ],
            "type" : "VEC3"
        },
        {
            "bufferView" : 5,
            "componentType" : 5126,
            "count" : 494,
            "type" : "VEC3"
        },
        {
            "bufferView" : 6,
            "componentType" : 5126,
            "count" : 494,
            "type" : "VEC2"
        },
        {
            "bufferView" : 7,
            "componentType" : 5123,
            "count" : 762,
            "type" : "SCALAR"
        },
        {
            "bufferView" : 8,
            "componentType" : 5126,
            "count" : 1712,
            "max" : [
                1.8604739904403687,
                2.162903308868408,
                63.215858459472656
            ],
            "min" : [
                1.7423069477081299,
                1.9368252754211426,
                57.37779998779297
            ],
            "type" : "VEC3"
        },
        {
            "bufferView" : 9,
            "componentType" : 5126,
            "count" : 1712,
            "type" : "VEC3"
        },
        {
            "bufferView" : 10,
            "componentType" : 5126,
            "count" : 1712,
            "type" : "VEC2"
        },
        {
            "bufferView" : 11,
            "componentType" : 5123,
            "count" : 2472,
            "type" : "SCALAR"
        },
        {
            "bufferView" : 12,
            "componentType" : 5126,
            "count" : 4736,
            "max" : [
                -0.26313430070877075,
                4.220208168029785,
                156.56375122070312
            ],
            "min" : [
                -1.6632916927337646,
                -0.25231146812438965,
                73.35811614990234
            ],
            "type" : "VEC3"
        },
        {
            "bufferView" : 13,
            "componentType" : 5126,
            "count" : 4736,
            "type" : "VEC3"
        },
        {
            "bufferView" : 14,
            "componentType" : 5126,
            "count" : 4736,
            "type" : "VEC2"
        },
        {
            "bufferView" : 15,
            "componentType" : 5123,
            "count" : 7272,
            "type" : "SCALAR"
        },
        {
            "bufferView" : 16,
            "componentType" : 5126,
            "count" : 1570,
            "max" : [
                1.0281105041503906,
                1.3997725248336792,
                49.826629638671875
            ],
            "min" : [
                -1.0193967819213867,
                -1.024781346321106,
                -10.83244800567627
            ],
            "type" : "VEC3"
        },
        {
            "bufferView" : 17,
            "componentType" : 5126,
            "count" : 1570,
            "type" : "VEC3"
        },
        {
            "bufferView" : 18,
            "componentType" : 5126,
            "count" : 1570,
            "type" : "VEC2"
        },
        {
            "bufferView" : 19,
            "componentType" : 5123,
            "count" : 2400,
            "type" : "SCALAR"
        },
        {
            "bufferView" : 20,
            "componentType" : 5126,
            "count" : 24,
            "max" : [
                0.1633703112602234,
                1.3372993469238281,
                49.024940490722656
            ],
            "min" : [
                -0.17013853788375854,
                1.224562644958496,
                40.23707580566406
            ],
            "type" : "VEC3"
        },
        {
            "bufferView" : 21,
            "componentType" : 5126,
            "count" : 24,
            "type" : "VEC3"
        },
        {
            "bufferView" : 22,
            "componentType" : 5126,
            "count" : 24,
            "type" : "VEC2"
        },
        {
            "bufferView" : 23,
            "componentType" : 5123,
            "count" : 36,
            "type" : "SCALAR"
        },
        {
            "bufferView" : 24,
            "componentType" : 5126,
            "count" : 960,
            "max" : [
                0.49453023076057434,
                1.2407206296920776,
                39.05766677856445
            ],
            "min" : [
                -0.49610060453414917,
                1.0902329683303833,
                27.717792510986328
            ],
            "type" : "VEC3"
        },
        {
            "bufferView" : 25,
            "componentType" : 5126,
            "count" : 960,
            "type" : "VEC3"
        },
        {
            "bufferView" : 26,
            "componentType" : 5126,
            "count" : 960,
            "type" : "VEC2"
        },
        {
            "bufferView" : 27,
            "componentType" : 5123,
            "count" : 1440,
            "type" : "SCALAR"
        },
        {
            "bufferView" : 29,
            "componentType" : 5126,
            "count" : 144,
            "max" : [
                2.161829710006714,
                1.3225345611572266,
                32.08712387084961
            ],
            "min" : [
                1.1490540504455566,
                -0.23820123076438904,
                -30.727169036865234
            ],
            "type" : "VEC3"
        },
        {
            "bufferView" : 30,
            "componentType" : 5126,
            "count" : 144,
            "type" : "VEC3"
        },
        {
            "bufferView" : 31,
            "componentType" : 5126,
            "count" : 144,
            "type" : "VEC2"
        },
        {
            "bufferView" : 32,
            "componentType" : 5123,
            "count" : 216,
            "type" : "SCALAR"
        },
        {
            "bufferView" : 33,
            "componentType" : 5126,
            "count" : 144,
            "max" : [
                2.0949742794036865,
                0.7973517179489136,
                30.371971130371094
            ],
            "min" : [
                1.2339595556259155,
                -0.7557100057601929,
                -24.912033081054688
            ],
            "type" : "VEC3"
        },
        {
            "bufferView" : 34,
            "componentType" : 5126,
            "count" : 144,
            "type" : "VEC3"
        },
        {
            "bufferView" : 35,
            "componentType" : 5126,
            "count" : 144,
            "type" : "VEC2"
        },
        {
            "bufferView" : 36,
            "componentType" : 5123,
            "count" : 216,
            "type" : "SCALAR"
        }
    ],
    "bufferViews" : [
        {
            "buffer" : 0,
            "byteLength" : 228456,
            "byteOffset" : 0
        },
        {
            "buffer" : 0,
            "byteLength" : 228456,
            "byteOffset" : 228456
        },
        {
            "buffer" : 0,
            "byteLength" : 152304,
            "byteOffset" : 456912
        },
        {
            "buffer" : 0,
            "byteLength" : 56208,
            "byteOffset" : 609216
        },
        {
            "buffer" : 0,
            "byteLength" : 5928,
            "byteOffset" : 665424
        },
        {
            "buffer" : 0,
            "byteLength" : 5928,
            "byteOffset" : 671352
        },
        {
            "buffer" : 0,
            "byteLength" : 3952,
            "byteOffset" : 677280
        },
        {
            "buffer" : 0,
            "byteLength" : 1524,
            "byteOffset" : 681232
        },
        {
            "buffer" : 0,
            "byteLength" : 20544,
            "byteOffset" : 682756
        },
        {
            "buffer" : 0,
            "byteLength" : 20544,
            "byteOffset" : 703300
        },
        {
            "buffer" : 0,
            "byteLength" : 13696,
            "byteOffset" : 723844
        },
        {
            "buffer" : 0,
            "byteLength" : 4944,
            "byteOffset" : 737540
        },
        {
            "buffer" : 0,
            "byteLength" : 56832,
            "byteOffset" : 742484
        },
        {
            "buffer" : 0,
            "byteLength" : 56832,
            "byteOffset" : 799316
        },
        {
            "buffer" : 0,
            "byteLength" : 37888,
            "byteOffset" : 856148
        },
        {
            "buffer" : 0,
            "byteLength" : 14544,
            "byteOffset" : 894036
        },
        {
            "buffer" : 0,
            "byteLength" : 18840,
            "byteOffset" : 908580
        },
        {
            "buffer" : 0,
            "byteLength" : 18840,
            "byteOffset" : 927420
        },
        {
            "buffer" : 0,
            "byteLength" : 12560,
            "byteOffset" : 946260
        },
        {
            "buffer" : 0,
            "byteLength" : 4800,
            "byteOffset" : 958820
        },
        {
            "buffer" : 0,
            "byteLength" : 288,
            "byteOffset" : 963620
        },
        {
            "buffer" : 0,
            "byteLength" : 288,
            "byteOffset" : 963908
        },
        {
            "buffer" : 0,
            "byteLength" : 192,
            "byteOffset" : 964196
        },
        {
            "buffer" : 0,
            "byteLength" : 72,
            "byteOffset" : 964388
        },
        {
            "buffer" : 0,
            "byteLength" : 11520,
            "byteOffset" : 964460
        },
        {
            "buffer" : 0,
            "byteLength" : 11520,
            "byteOffset" : 975980
        },
        {
            "buffer" : 0,
            "byteLength" : 7680,
            "byteOffset" : 987500
        },
        {
            "buffer" : 0,
            "byteLength" : 2880,
            "byteOffset" : 995180
        },
        {
            "buffer" : 0,
            "byteLength" : 13135,
            "byteOffset" : 998060
        },
        {
            "buffer" : 0,
            "byteLength" : 1728,
            "byteOffset" : 1011196
        },
        {
            "buffer" : 0,
            "byteLength" : 1728,
            "byteOffset" : 1012924
        },
        {
            "buffer" : 0,
            "byteLength" : 1152,
            "byteOffset" : 1014652
        },
        {
            "buffer" : 0,
            "byteLength" : 432,
            "byteOffset" : 1015804
        },
        {
            "buffer" : 0,
            "byteLength" : 1728,
            "byteOffset" : 1016236
        },
        {
            "buffer" : 0,
            "byteLength" : 1728,
            "byteOffset" : 1017964
        },
        {
            "buffer" : 0,
            "byteLength" : 1152,
            "byteOffset" : 1019692
        },
        {
            "buffer" : 0,
            "byteLength" : 432,
            "byteOffset" : 1020844
        }
    ],
    "buffers" : [
        {
            "byteLength" : 1021276,
            "uri" : "data:application/octet-stream;base64,"
        }
    ]
}
